<svg width="838" height="290" viewBox="0 0 838 290" fill="none" xmlns="http://www.w3.org/2000/svg">
<path fill-rule="evenodd" clip-rule="evenodd" d="M397.49 63.4351V131.304H413.197V112.397H426.868C427.115 112.397 427.361 112.396 427.606 112.393L440.635 131.304H457.603L442.441 109.547C442.486 109.528 442.53 109.508 442.575 109.489C446.97 107.55 450.363 104.77 452.755 101.151C455.146 97.4663 456.342 93.1034 456.342 88.0617C456.342 82.9554 455.146 78.5601 452.755 74.8758C450.363 71.1915 446.97 68.3798 442.575 66.4407C438.179 64.437 432.944 63.4351 426.868 63.4351H397.49ZM413.197 99.8902H425.995C430.843 99.8902 434.463 98.856 436.854 96.7877C439.246 94.6546 440.441 91.746 440.441 88.0617C440.441 84.3128 439.246 81.4041 436.854 79.3357C434.463 77.2674 430.843 76.2332 425.995 76.2332H413.197V99.8902Z" fill="#3BB3EB"/>
<path d="M467.72 79.1418V131.304H482.845V79.1418H467.72Z" fill="#3BB3EB"/>
<path d="M468.496 69.4463C470.241 71.0622 472.503 71.8702 475.282 71.8702C478.126 71.8702 480.389 71.0622 482.069 69.4463C483.815 67.7658 484.687 65.6651 484.687 63.1442C484.687 60.7527 483.815 58.8136 482.069 57.3269C480.324 55.7756 478.062 55 475.282 55C472.503 55 470.241 55.808 468.496 57.4239C466.75 59.0398 465.878 61.0435 465.878 63.4351C465.878 65.8267 466.75 67.8304 468.496 69.4463Z" fill="#3BB3EB"/>
<path fill-rule="evenodd" clip-rule="evenodd" d="M507.159 149.046C511.749 150.275 516.499 150.889 521.412 150.889C530.849 150.889 538.088 148.594 543.13 144.005C548.171 139.416 550.692 132.273 550.692 122.578V79.1418H536.343V85.7684C534.784 83.7806 532.91 82.2181 530.72 81.0809C527.358 79.2711 523.48 78.3662 519.085 78.3662C514.237 78.3662 509.842 79.4004 505.899 81.4687C502.021 83.5371 498.886 86.4781 496.494 90.2917C494.168 94.0406 493.004 98.4682 493.004 103.575C493.004 108.616 494.168 113.044 496.494 116.857C498.886 120.606 502.021 123.547 505.899 125.68C509.842 127.749 514.237 128.783 519.085 128.783C523.48 128.783 527.358 127.878 530.72 126.068C532.558 125.078 534.174 123.808 535.567 122.258V124.517C535.567 129.235 534.339 132.79 531.883 135.182C529.491 137.573 525.613 138.769 520.248 138.769C516.952 138.769 513.591 138.22 510.165 137.121C506.804 136.087 504.025 134.665 501.827 132.855L495.816 143.714C498.854 146.105 502.635 147.883 507.159 149.046ZM529.168 114.821C527.1 115.855 524.741 116.373 522.091 116.373C519.44 116.373 517.081 115.855 515.013 114.821C512.944 113.722 511.296 112.204 510.068 110.264C508.905 108.325 508.323 106.095 508.323 103.575C508.323 100.989 508.905 98.7591 510.068 96.8846C511.296 94.9455 512.944 93.4589 515.013 92.4247C517.081 91.3258 519.44 90.7764 522.091 90.7764C524.741 90.7764 527.1 91.3258 529.168 92.4247C531.237 93.4589 532.853 94.9455 534.016 96.8846C535.18 98.7591 535.761 100.989 535.761 103.575C535.761 106.095 535.18 108.325 534.016 110.264C532.853 112.204 531.237 113.722 529.168 114.821Z" fill="#3BB3EB"/>
<path d="M607.527 80.887C604.295 79.2065 600.611 78.3662 596.474 78.3662C592.014 78.3662 588.039 79.3034 584.549 81.1779C582.793 82.1208 581.242 83.2681 579.895 84.6198V59.363H564.77V131.304H579.895V105.514C579.895 102.282 580.412 99.6317 581.446 97.5633C582.545 95.4949 584.032 93.976 585.906 93.0064C587.845 91.9722 590.01 91.4551 592.402 91.4551C595.763 91.4551 598.349 92.457 600.158 94.4607C602.033 96.4645 602.97 99.567 602.97 103.768V131.304H618.095V101.441C618.095 96.1413 617.158 91.8106 615.283 88.4495C613.409 85.0238 610.823 82.5029 607.527 80.887Z" fill="#3BB3EB"/>
<path d="M638.786 127.425C642.212 130.528 646.995 132.079 653.135 132.079C655.462 132.079 657.692 131.821 659.825 131.304C662.023 130.722 663.897 129.882 665.449 128.783L661.376 118.118C659.696 119.411 657.66 120.057 655.268 120.057C653.265 120.057 651.681 119.475 650.517 118.312C649.354 117.084 648.772 115.371 648.772 113.173V91.9399H661.764V80.3053H648.772V67.6042H633.647V80.3053H625.6V91.9399H633.647V113.367C633.647 119.572 635.36 124.258 638.786 127.425Z" fill="#3BB3EB"/>
<path d="M404.665 232.64C409.319 234.256 414.167 235.064 419.208 235.064C425.026 235.064 429.776 234.224 433.461 232.543C437.21 230.798 439.989 228.536 441.799 225.756C443.609 222.912 444.514 219.842 444.514 216.546C444.514 212.991 443.738 210.114 442.187 207.917C440.7 205.719 438.696 203.974 436.175 202.681C433.719 201.324 431.005 200.225 428.031 199.384C425.123 198.544 422.182 197.769 419.208 197.058C416.235 196.347 413.488 195.539 410.967 194.634C408.511 193.729 406.507 192.468 404.956 190.852C403.469 189.237 402.726 187.104 402.726 184.453C402.726 182.126 403.34 180.058 404.568 178.248C405.861 176.374 407.832 174.887 410.482 173.788C413.132 172.69 416.494 172.14 420.566 172.14C423.604 172.14 426.739 172.593 429.97 173.497C433.267 174.402 436.369 175.824 439.278 177.763L441.702 172.043C438.987 170.169 435.755 168.714 432.006 167.68C428.257 166.581 424.476 166.032 420.663 166.032C414.91 166.032 410.192 166.905 406.507 168.65C402.823 170.33 400.076 172.593 398.266 175.437C396.521 178.216 395.648 181.286 395.648 184.647C395.648 188.267 396.392 191.208 397.878 193.47C399.429 195.668 401.433 197.445 403.889 198.803C406.41 200.16 409.157 201.259 412.131 202.099C415.104 202.875 418.077 203.618 421.05 204.329C424.024 205.04 426.739 205.88 429.195 206.85C431.651 207.755 433.622 209.015 435.109 210.631C436.66 212.247 437.436 214.38 437.436 217.03C437.436 219.228 436.79 221.232 435.497 223.042C434.269 224.851 432.297 226.306 429.583 227.405C426.932 228.439 423.474 228.956 419.208 228.956C414.748 228.956 410.482 228.18 406.41 226.629C402.403 225.013 399.203 223.042 396.812 220.715L394 226.241C396.521 228.827 400.076 230.96 404.665 232.64Z" fill="#3BB3EB"/>
<path fill-rule="evenodd" clip-rule="evenodd" d="M466.157 231.671C470.1 233.868 474.528 234.967 479.44 234.967C484.417 234.967 488.877 233.868 492.82 231.671C496.763 229.408 499.833 226.338 502.031 222.46C504.293 218.517 505.424 214.025 505.424 208.983C505.424 203.877 504.293 199.384 502.031 195.506C499.833 191.628 496.763 188.59 492.82 186.392C488.942 184.195 484.482 183.096 479.44 183.096C474.463 183.096 470.036 184.195 466.157 186.392C462.279 188.59 459.209 191.628 456.947 195.506C454.684 199.384 453.553 203.877 453.553 208.983C453.553 214.025 454.684 218.517 456.947 222.46C459.209 226.338 462.279 229.408 466.157 231.671ZM489.233 226.435C486.389 228.051 483.124 228.859 479.44 228.859C475.885 228.859 472.686 228.051 469.842 226.435C466.998 224.754 464.735 222.427 463.055 219.454C461.374 216.416 460.534 212.926 460.534 208.983C460.534 204.976 461.374 201.485 463.055 198.512C464.735 195.539 466.998 193.244 469.842 191.628C472.686 189.948 475.917 189.107 479.537 189.107C483.157 189.107 486.389 189.948 489.233 191.628C492.077 193.244 494.307 195.539 495.923 198.512C497.603 201.485 498.443 204.976 498.443 208.983C498.443 212.926 497.603 216.416 495.923 219.454C494.307 222.427 492.077 224.754 489.233 226.435Z" fill="#3BB3EB"/>
<path d="M526.362 162.542H519.478V234.482H526.362V162.542Z" fill="#3BB3EB"/>
<path d="M555.211 232.543C558.443 234.159 562.224 234.967 566.555 234.967C571.08 234.967 575.023 233.933 578.384 231.864C581.131 230.154 583.296 227.924 584.88 225.174V234.482H591.473V183.581H584.589V210.243C584.589 214.122 583.878 217.45 582.456 220.23C581.098 223.009 579.095 225.142 576.445 226.629C573.859 228.051 570.789 228.762 567.234 228.762C562.386 228.762 558.605 227.405 555.89 224.69C553.24 221.91 551.915 217.806 551.915 212.376V183.581H545.031V213.152C545.031 218 545.904 222.04 547.649 225.271C549.459 228.503 551.98 230.927 555.211 232.543Z" fill="#3BB3EB"/>
<path d="M615.699 231.089C618.285 233.674 621.969 234.967 626.752 234.967C628.756 234.967 630.695 234.676 632.569 234.094C634.509 233.513 636.157 232.608 637.514 231.38L635.09 226.435C633.087 228.18 630.566 229.053 627.528 229.053C624.684 229.053 622.486 228.245 620.935 226.629C619.448 225.013 618.705 222.718 618.705 219.745V189.301H634.218V183.581H618.705V172.334H611.821V183.581H602.707V189.301H611.821V220.133C611.821 224.851 613.114 228.503 615.699 231.089Z" fill="#3BB3EB"/>
<path d="M650.046 183.581V234.482H656.929V183.581H650.046Z" fill="#3BB3EB"/>
<path d="M649.949 170.88C650.918 171.849 652.114 172.334 653.536 172.334C655.023 172.334 656.218 171.849 657.123 170.88C658.093 169.91 658.578 168.714 658.578 167.292C658.578 165.935 658.093 164.804 657.123 163.899C656.154 162.994 654.958 162.542 653.536 162.542C652.114 162.542 650.918 163.026 649.949 163.996C648.979 164.901 648.494 166.032 648.494 167.389C648.494 168.747 648.979 169.91 649.949 170.88Z" fill="#3BB3EB"/>
<path fill-rule="evenodd" clip-rule="evenodd" d="M683.549 231.671C687.492 233.868 691.919 234.967 696.832 234.967C701.809 234.967 706.269 233.868 710.212 231.671C714.154 229.408 717.225 226.338 719.422 222.46C721.685 218.517 722.816 214.025 722.816 208.983C722.816 203.877 721.685 199.384 719.422 195.506C717.225 191.628 714.154 188.59 710.212 186.392C706.333 184.195 701.873 183.096 696.832 183.096C691.855 183.096 687.427 184.195 683.549 186.392C679.671 188.59 676.6 191.628 674.338 195.506C672.076 199.384 670.945 203.877 670.945 208.983C670.945 214.025 672.076 218.517 674.338 222.46C676.6 226.338 679.671 229.408 683.549 231.671ZM706.624 226.435C703.78 228.051 700.516 228.859 696.832 228.859C693.277 228.859 690.077 228.051 687.233 226.435C684.389 224.754 682.127 222.427 680.446 219.454C678.766 216.416 677.925 212.926 677.925 208.983C677.925 204.976 678.766 201.485 680.446 198.512C682.127 195.539 684.389 193.244 687.233 191.628C690.077 189.948 693.309 189.107 696.929 189.107C700.548 189.107 703.78 189.948 706.624 191.628C709.468 193.244 711.698 195.539 713.314 198.512C714.995 201.485 715.835 204.976 715.835 208.983C715.835 212.926 714.995 216.416 713.314 219.454C711.698 222.427 709.468 224.754 706.624 226.435Z" fill="#3BB3EB"/>
<path d="M773.713 185.52C770.61 183.904 766.99 183.096 762.854 183.096C757.941 183.096 753.707 184.163 750.152 186.296C747.297 187.957 745.067 190.14 743.463 192.844V183.581H736.87V234.482H743.753V207.723C743.753 203.844 744.464 200.548 745.886 197.833C747.373 195.054 749.441 192.953 752.092 191.531C754.806 190.044 757.974 189.301 761.593 189.301C766.441 189.301 770.19 190.691 772.84 193.47C775.555 196.185 776.912 200.225 776.912 205.59V234.482H783.796V204.911C783.796 199.999 782.891 195.926 781.081 192.695C779.336 189.463 776.88 187.071 773.713 185.52Z" fill="#3BB3EB"/>
<path d="M804.135 233.222C807.884 234.385 811.859 234.967 816.061 234.967C820.521 234.967 824.302 234.385 827.405 233.222C830.572 231.994 832.963 230.313 834.579 228.18C836.26 225.983 837.1 223.397 837.1 220.424C837.1 217.644 836.486 215.414 835.258 213.734C834.094 211.989 832.511 210.664 830.507 209.759C828.568 208.789 826.403 208.046 824.011 207.529C821.684 206.947 819.325 206.462 816.933 206.074C814.606 205.687 812.441 205.202 810.437 204.62C808.498 203.974 806.915 203.101 805.687 202.002C804.523 200.903 803.941 199.384 803.941 197.445C803.941 194.989 805.008 192.985 807.141 191.434C809.339 189.818 812.732 189.01 817.321 189.01C819.907 189.01 822.492 189.366 825.078 190.077C827.663 190.723 830.087 191.822 832.349 193.373L835.355 187.847C833.222 186.425 830.507 185.294 827.211 184.453C823.914 183.548 820.618 183.096 817.321 183.096C812.99 183.096 809.306 183.742 806.268 185.035C803.295 186.263 801.033 187.976 799.481 190.174C797.93 192.371 797.155 194.86 797.155 197.639C797.155 200.548 797.736 202.875 798.9 204.62C800.128 206.365 801.711 207.755 803.651 208.789C805.59 209.759 807.723 210.502 810.05 211.019C812.441 211.536 814.833 211.989 817.224 212.376C819.616 212.764 821.781 213.249 823.72 213.831C825.659 214.348 827.211 215.156 828.374 216.255C829.602 217.289 830.216 218.743 830.216 220.618C830.216 223.138 829.15 225.175 827.017 226.726C824.884 228.212 821.393 228.956 816.546 228.956C812.99 228.956 809.597 228.406 806.365 227.308C803.133 226.144 800.483 224.787 798.415 223.235L795.312 228.665C797.445 230.475 800.386 231.994 804.135 233.222Z" fill="#3BB3EB"/>
<path d="M108.092 4.91327C108.092 2.19974 110.292 0 113.005 0H312.811C323.665 0 332.464 8.79898 332.464 19.6531V217.821C332.464 220.535 330.265 222.735 327.551 222.735C324.838 222.735 322.638 220.535 322.638 217.821V19.6531C322.638 14.226 318.238 9.82653 312.811 9.82653H113.005C110.292 9.82653 108.092 7.62679 108.092 4.91327Z" fill="#3BB3EB"/>
<path fill-rule="evenodd" clip-rule="evenodd" d="M180.965 213.76C193.408 217.315 206.416 219.092 219.99 219.092C236.149 219.092 249.48 216.668 259.984 211.821C270.649 206.973 278.648 200.59 283.98 192.672C289.313 184.754 291.979 176.028 291.979 166.494C291.979 157.607 290.121 150.254 286.404 144.437C282.849 138.62 278.163 133.933 272.346 130.378C266.528 126.823 260.065 123.996 252.955 121.895C246.006 119.794 238.977 117.936 231.867 116.32C224.918 114.704 218.536 113.088 212.718 111.472C206.901 109.856 202.215 107.756 198.66 105.17C195.105 102.423 193.327 98.868 193.327 94.5051C193.327 90.7884 194.378 87.5566 196.478 84.8095C198.579 81.9009 202.053 79.5578 206.901 77.7803C211.749 76.0028 217.97 75.114 225.565 75.114C233.16 75.114 240.916 76.2452 248.834 78.5075C255.659 80.3181 262.484 83.0292 269.308 86.6406C271.06 87.5675 273.251 86.8136 273.998 84.9778L283.676 61.1689C284.273 59.7003 283.736 58.0084 282.367 57.2093C275.005 52.9129 266.656 49.6704 257.318 47.4818C246.976 44.8964 236.472 43.6036 225.807 43.6036C209.81 43.6036 196.478 46.0275 185.813 50.8753C175.31 55.5614 167.392 61.9443 162.059 70.0239C159.205 74.3942 157.139 79.0353 155.86 83.9472C155.321 86.0163 153.079 87.231 151.075 86.4837C141.107 82.7646 129.578 80.9051 116.49 80.9051H46.3224C44.5133 80.9051 43.0469 82.3716 43.0469 84.1806V247.301C43.0469 249.11 44.5133 250.577 46.3224 250.577H79.0382C80.8472 250.577 82.3137 249.11 82.3137 247.301V206.586C82.3137 204.777 83.7802 203.311 85.5892 203.311L116.588 203.311C117.68 203.31 118.708 203.839 119.328 204.739L149.933 249.159C150.544 250.047 151.553 250.577 152.63 250.577H187.052C189.699 250.577 191.253 247.6 189.74 245.428L170.093 217.235C168.156 214.455 171.373 210.553 174.568 211.681C176.624 212.407 178.757 213.1 180.965 213.76ZM181.208 175.194C180.115 176.849 180.673 179.137 182.502 179.905C184.892 180.908 187.369 181.851 189.934 182.734C199.953 185.966 210.052 187.582 220.232 187.582C227.989 187.582 234.21 186.855 238.896 185.4C243.744 183.785 247.299 181.603 249.561 178.856C251.824 176.109 252.955 172.958 252.955 169.403C252.955 164.878 251.177 161.323 247.622 158.738C244.067 155.991 239.381 153.809 233.564 152.193C227.746 150.416 221.283 148.8 214.173 147.346C207.224 145.73 200.195 143.791 193.085 141.528C192.719 141.409 192.355 141.288 191.992 141.166C191.104 140.865 190.176 141.534 190.176 142.472C190.176 155.076 187.187 165.983 181.208 175.194ZM82.3137 168.767C82.3137 170.576 83.7802 172.043 85.5892 172.043H114.309C126.428 172.043 135.477 169.457 141.456 164.287C147.435 158.954 150.425 151.682 150.425 142.472C150.425 133.099 147.435 125.828 141.456 120.657C135.477 115.486 126.428 112.9 114.309 112.9H85.5892C83.7802 112.9 82.3137 114.367 82.3137 116.176V168.767Z" fill="#3BB3EB"/>
<path d="M219.459 289.883C222.173 289.883 224.372 287.683 224.372 284.969C224.372 282.256 222.173 280.056 219.459 280.056H19.653C14.226 280.056 9.82653 275.657 9.82653 270.23V72.0612C9.82653 69.3477 7.62677 67.148 4.91327 67.148C2.19973 67.148 0 69.3477 0 72.0612V270.23C0 281.084 8.79896 289.883 19.653 289.883H219.459Z" fill="#3BB3EB"/>
</svg>
